<?xml version="1.0" encoding="UTF-8"?>
<svg id="Layer_1" xmlns="http://www.w3.org/2000/svg" xmlns:xlink="http://www.w3.org/1999/xlink" viewBox="0 0 1080 335.2">
  <defs>
    <style>
      .cls-1 {
        fill: #262626;
      }

      .cls-2 {
        fill: #d229ff;
      }

      .cls-3 {
        fill: url(#linear-gradient);
      }
    </style>
    <linearGradient id="linear-gradient" x1="29.39" y1="328.87" x2="305.62" y2="123.31" gradientUnits="userSpaceOnUse">
      <stop offset="0" stop-color="#28d4fa"/>
      <stop offset="1" stop-color="#d229ff"/>
    </linearGradient>
  </defs>
  <g>
    <path class="cls-1" d="M402.73,42.53l-43.37,125.72h24.81l9.11-27h48.6l8.94,27h24.98l-43.37-125.72h-29.7ZM399.86,121l17.72-53.02,17.72,53.02h-35.44Z"/>
    <path class="cls-1" d="M552.66,78.81c-5.23-2.92-11.22-4.39-17.97-4.39s-12.23,1.43-17.13,4.3c-3.78,2.21-6.72,5.23-8.86,9.02v-11.29h-20.76v91.8h22.11v-53.83c0-4.05.79-7.54,2.36-10.46,1.57-2.92,3.77-5.2,6.58-6.83,2.81-1.63,6.02-2.45,9.62-2.45s6.94.82,9.7,2.45c2.76,1.63,4.92,3.91,6.5,6.83,1.57,2.93,2.36,6.41,2.36,10.46v53.83h22.11v-59.06c0-6.86-1.46-12.91-4.39-18.14-2.93-5.23-7-9.31-12.23-12.23Z"/>
    <rect class="cls-1" x="588.02" y="76.45" width="22.11" height="91.8"/>
    <rect class="cls-1" x="588.02" y="42.53" width="22.11" height="23.63"/>
    <path class="cls-1" d="M751.29,78.81c-5.12-2.92-10.94-4.39-17.47-4.39-7.32,0-13.78,1.83-19.41,5.48-3.63,2.36-6.66,5.48-9.11,9.36-2.01-3.47-4.82-6.45-8.44-8.93-5.74-3.94-12.38-5.91-19.91-5.91-6.86,0-12.83,1.63-17.89,4.89-3.32,2.14-5.89,5.01-7.76,8.6v-11.47h-20.76v91.8h22.11v-53.83c0-4.05.73-7.54,2.19-10.46,1.46-2.92,3.54-5.2,6.24-6.83,2.7-1.63,5.79-2.45,9.28-2.45s6.72.82,9.37,2.45c2.64,1.63,4.7,3.91,6.16,6.83,1.46,2.93,2.19,6.41,2.19,10.46v53.83h22.11v-53.83c0-4.05.73-7.54,2.19-10.46,1.46-2.92,3.54-5.2,6.24-6.83,2.7-1.63,5.79-2.45,9.28-2.45,3.71,0,6.86.82,9.45,2.45,2.59,1.63,4.61,3.91,6.07,6.83,1.46,2.93,2.19,6.41,2.19,10.46v53.83h22.11v-59.06c0-6.86-1.46-12.91-4.39-18.14-2.93-5.23-6.95-9.31-12.07-12.23Z"/>
    <path class="cls-1" d="M845.71,78.56c-5.74-2.76-12.38-4.13-19.91-4.13-6.19,0-11.93,1.01-17.21,3.04-5.29,2.03-9.87,4.81-13.75,8.35-3.88,3.54-6.72,7.74-8.52,12.57l18.06,8.78c1.69-4.16,4.36-7.51,8.02-10.04,3.65-2.53,7.85-3.8,12.57-3.8,5.06,0,9.14,1.32,12.23,3.97,3.09,2.64,4.64,5.94,4.64,9.87v2.97l-27.34,4.45c-7.2,1.13-13.16,3.04-17.89,5.74-4.73,2.7-8.21,6.05-10.46,10.04-2.25,4-3.37,8.52-3.37,13.59s1.29,9.93,3.88,13.92c2.59,3.99,6.24,7.06,10.97,9.2,4.72,2.14,10.29,3.21,16.71,3.21,5.06,0,9.68-.7,13.84-2.11,4.16-1.41,7.87-3.43,11.14-6.07,1.32-1.07,2.54-2.27,3.71-3.55v9.71h20.93v-61.09c0-6.52-1.6-12.23-4.81-17.13-3.21-4.89-7.68-8.72-13.42-11.48ZM838.87,142.27c-1.97,3.49-4.73,6.22-8.27,8.18-3.54,1.97-7.62,2.95-12.23,2.95-3.6,0-6.61-.93-9.03-2.78-2.42-1.86-3.63-4.36-3.63-7.51s1.07-5.91,3.21-7.93c2.14-2.03,5.4-3.43,9.79-4.22l23.12-3.93v3.76c0,4.16-.99,7.99-2.95,11.48Z"/>
    <path class="cls-1" d="M929.58,149.86c-3.6,0-6.55-.56-8.86-1.69-2.31-1.12-3.99-2.76-5.06-4.89-1.07-2.14-1.6-4.73-1.6-7.76v-39.32h21.09v-19.75h-21.09v-20.93h-22.11v7.09c0,4.5-1.24,7.93-3.71,10.29-2.48,2.36-5.96,3.54-10.46,3.54h-1.69v19.75h15.86v40.5c0,10.35,2.84,18.37,8.52,24.05,5.68,5.68,13.69,8.52,24.05,8.52,1.69,0,3.54-.11,5.57-.34,2.03-.23,3.82-.45,5.4-.68v-18.9c-1.01.11-2.05.23-3.12.34-1.07.11-2,.17-2.78.17Z"/>
    <path class="cls-1" d="M1035.05,102.02c-2.03-5.34-4.95-10.1-8.78-14.26-3.83-4.16-8.47-7.43-13.92-9.79-5.46-2.36-11.79-3.54-18.99-3.54-8.55,0-16.28,2.08-23.2,6.24-6.92,4.16-12.38,9.82-16.37,16.96-4,7.15-5.99,15.33-5.99,24.55s1.97,16.99,5.91,24.3c3.94,7.31,9.45,13.11,16.54,17.38,7.09,4.28,15.36,6.41,24.81,6.41,6.3,0,12.07-.96,17.3-2.87,5.23-1.91,9.76-4.56,13.59-7.93,3.82-3.37,6.64-7.26,8.44-11.64l-17.89-8.78c-2.03,3.6-4.81,6.47-8.35,8.61-3.54,2.14-7.85,3.21-12.91,3.21s-9.53-1.18-13.42-3.54c-3.88-2.36-6.81-5.71-8.78-10.04-1.21-2.65-1.95-5.55-2.25-8.69h66.13c.45-1.24.76-2.7.93-4.39.17-1.69.25-3.32.25-4.89,0-6.19-1.01-11.95-3.04-17.3ZM981.05,96.11c3.6-2.3,7.7-3.46,12.32-3.46s8.97,1.18,12.4,3.54c3.43,2.36,5.91,5.57,7.43,9.62.69,1.85,1.11,3.82,1.28,5.91h-43.23c.37-1.96.91-3.79,1.62-5.48,1.86-4.44,4.58-7.82,8.19-10.13Z"/>
  </g>
  <g>
    <polygon class="cls-1" points="397.63 249.98 369.31 209.69 359.35 209.69 359.35 292.12 370.2 292.12 370.2 229.51 397.09 267.78 397.97 267.78 424.75 230.08 424.75 292.12 435.7 292.12 435.7 209.69 425.75 209.69 397.63 249.98"/>
    <path class="cls-1" d="M499.83,239.95c-2.4-2.69-5.31-4.83-8.74-6.42-3.43-1.59-7.36-2.38-11.78-2.38-5.46,0-10.38,1.35-14.77,4.04-4.39,2.69-7.86,6.36-10.4,11.01-2.54,4.65-3.82,9.96-3.82,15.93s1.29,11.23,3.87,15.99c2.58,4.76,6.12,8.5,10.62,11.23,4.5,2.73,9.63,4.09,15.38,4.09,4.13,0,7.87-.66,11.23-1.99,3.36-1.33,6.27-3.12,8.74-5.37,2.47-2.25,4.3-4.74,5.48-7.47l-8.63-4.43c-1.7,2.88-3.91,5.24-6.64,7.08-2.73,1.84-6.09,2.77-10.07,2.77-3.62,0-6.95-.9-10.01-2.71-3.06-1.81-5.42-4.35-7.08-7.63-1.25-2.48-1.95-5.26-2.08-8.35h45.63c.15-.89.28-1.83.39-2.82.11-1,.17-1.9.17-2.71,0-3.69-.65-7.25-1.94-10.68-1.29-3.43-3.14-6.49-5.53-9.18ZM469.78,242.99c2.88-1.77,6.05-2.66,9.52-2.66s6.57.88,9.3,2.66c2.73,1.77,4.79,4.17,6.2,7.19.89,1.93,1.32,4.05,1.37,6.31h-34.8c.31-2.15.86-4.13,1.73-5.92,1.59-3.28,3.82-5.81,6.69-7.58Z"/>
    <path class="cls-1" d="M596.09,234.03c-3.36-1.92-7.1-2.88-11.23-2.88-4.5,0-8.59,1.2-12.28,3.6-2.73,1.77-4.87,4.17-6.42,7.18-1.48-2.72-3.55-5.03-6.25-6.9-3.73-2.58-7.91-3.87-12.56-3.87-4.06,0-7.71,1-10.95,2.99-2.35,1.44-4.22,3.36-5.64,5.73v-7.39h-10.07v59.64h10.29v-35.3c0-3.25.61-6.03,1.83-8.35,1.22-2.32,2.88-4.13,4.98-5.42,2.1-1.29,4.48-1.94,7.14-1.94s5.11.65,7.14,1.94c2.03,1.29,3.63,3.08,4.81,5.37,1.18,2.29,1.77,5.09,1.77,8.41v35.3h10.4v-35.3c0-3.25.61-6.03,1.83-8.35,1.22-2.32,2.88-4.13,4.98-5.42,2.1-1.29,4.48-1.94,7.14-1.94s5.11.65,7.14,1.94c2.03,1.29,3.63,3.08,4.81,5.37,1.18,2.29,1.77,5.09,1.77,8.41v35.3h10.4v-38.62c0-4.28-1-8.11-2.99-11.51-1.99-3.39-4.67-6.05-8.02-7.97Z"/>
    <path class="cls-1" d="M665.63,235.19c-4.65-2.69-9.85-4.04-15.6-4.04s-11.07,1.37-15.71,4.09c-4.65,2.73-8.32,6.42-11.01,11.06-2.69,4.65-4.04,9.96-4.04,15.93s1.36,11.32,4.09,16.04c2.73,4.72,6.42,8.43,11.06,11.12,4.65,2.69,9.85,4.04,15.6,4.04s10.71-1.35,15.32-4.04c4.61-2.69,8.32-6.38,11.12-11.07,2.8-4.68,4.2-10.05,4.2-16.1s-1.35-11.4-4.04-16.05c-2.69-4.65-6.36-8.32-11.01-11.01ZM667.13,273.09c-1.73,3.25-4.09,5.79-7.08,7.63-2.99,1.84-6.33,2.77-10.01,2.77s-7.14-.92-10.12-2.77c-2.99-1.84-5.37-4.39-7.14-7.63-1.77-3.25-2.66-6.86-2.66-10.84s.89-7.65,2.66-10.79c1.77-3.13,4.15-5.64,7.14-7.52,2.99-1.88,6.36-2.82,10.12-2.82s7.03.94,10.01,2.82c2.99,1.88,5.35,4.39,7.08,7.52,1.73,3.14,2.6,6.73,2.6,10.79s-.87,7.6-2.6,10.84Z"/>
    <path class="cls-1" d="M709.45,234.31c-2.21,1.27-3.97,3.07-5.31,5.36v-7.19h-10.07v59.64h10.29v-35.52c0-4.8,1.29-8.5,3.87-11.12,2.58-2.62,5.98-3.93,10.18-3.93h5.2v-9.74h-3.65c-4.13,0-7.63.83-10.51,2.49Z"/>
    <rect class="cls-1" x="732.8" y="232.48" width="10.29" height="59.64"/>
    <rect class="cls-1" x="732.8" y="209.69" width="10.29" height="13.28"/>
    <path class="cls-1" d="M806.1,239.95c-2.4-2.69-5.31-4.83-8.74-6.42-3.43-1.59-7.36-2.38-11.78-2.38-5.46,0-10.38,1.35-14.77,4.04-4.39,2.69-7.86,6.36-10.4,11.01-2.54,4.65-3.82,9.96-3.82,15.93s1.29,11.23,3.87,15.99c2.58,4.76,6.12,8.5,10.62,11.23,4.5,2.73,9.63,4.09,15.38,4.09,4.13,0,7.87-.66,11.23-1.99,3.36-1.33,6.27-3.12,8.74-5.37,2.47-2.25,4.3-4.74,5.48-7.47l-8.63-4.43c-1.7,2.88-3.91,5.24-6.64,7.08-2.73,1.84-6.09,2.77-10.07,2.77-3.61,0-6.95-.9-10.01-2.71-3.06-1.81-5.42-4.35-7.08-7.63-1.25-2.48-1.95-5.26-2.08-8.35h45.63c.15-.89.28-1.83.39-2.82.11-1,.17-1.9.17-2.71,0-3.69-.65-7.25-1.94-10.68-1.29-3.43-3.13-6.49-5.53-9.18ZM776.06,242.99c2.88-1.77,6.05-2.66,9.52-2.66s6.56.88,9.29,2.66c2.73,1.77,4.8,4.17,6.2,7.19.89,1.93,1.32,4.05,1.37,6.31h-34.8c.31-2.15.86-4.13,1.73-5.92,1.59-3.28,3.82-5.81,6.69-7.58Z"/>
    <path class="cls-1" d="M854.62,258.93l-9.74-2.88c-1.18-.37-2.4-.83-3.65-1.38-1.26-.55-2.32-1.36-3.21-2.43-.88-1.07-1.33-2.45-1.33-4.15,0-2.29.88-4.19,2.66-5.7,1.77-1.51,4.17-2.27,7.19-2.27,3.32,0,6.31.9,8.96,2.71,2.66,1.81,4.65,4.26,5.98,7.36l8.41-3.87c-1.77-4.79-4.74-8.52-8.91-11.17-4.17-2.66-8.87-3.98-14.11-3.98-3.91,0-7.43.74-10.57,2.21-3.14,1.48-5.61,3.52-7.41,6.14-1.81,2.62-2.71,5.7-2.71,9.24,0,3.84,1.24,7.19,3.71,10.07,2.47,2.88,6.4,5.09,11.78,6.64l8.96,2.55c1.18.3,2.47.76,3.87,1.38,1.4.63,2.6,1.48,3.6,2.54,1,1.07,1.49,2.49,1.49,4.26,0,2.51-1.07,4.54-3.21,6.09-2.14,1.55-4.83,2.32-8.08,2.32-3.62,0-6.9-1.03-9.85-3.1-2.95-2.06-5.27-4.87-6.97-8.41l-8.19,3.98c1.84,5.02,4.98,9,9.41,11.95,4.43,2.95,9.63,4.43,15.6,4.43,4.28,0,8.04-.74,11.29-2.21,3.24-1.47,5.79-3.54,7.63-6.2,1.84-2.66,2.77-5.64,2.77-8.96,0-4.13-1.35-7.67-4.04-10.62-2.69-2.95-6.47-5.13-11.34-6.53Z"/>
  </g>
  <path class="cls-3" d="M312.51,293.3h-48.5c-1.8,0-3.45-.98-4.32-2.55l-55.69-101.25c-1.87-3.4-6.76-3.4-8.63,0l-11.37,20.69c-1.87,3.4-6.76,3.4-8.63,0l-11.39-20.7c-1.87-3.4-6.76-3.4-8.63,0l-55.67,101.25c-.87,1.57-2.52,2.55-4.32,2.55h-48.51c-3.75,0-6.12-4.02-4.32-7.3l87.26-158.66,20.02-36.39,25.56-46.48c1.87-3.4,6.76-3.4,8.63,0l25.56,46.48,20.01,36.37,87.26,158.68c1.81,3.28-.57,7.3-4.32,7.3Z"/>
  <circle class="cls-2" cx="280.04" cy="79.31" r="37.4"/>
</svg>